<?xml version="1.0" encoding="UTF-8"?>
<svg width="16px" height="16px" viewBox="0 0 16 16" version="1.1" xmlns="http://www.w3.org/2000/svg" xmlns:xlink="http://www.w3.org/1999/xlink">
    <!-- Generator: Sketch 47 (45396) - http://www.bohemiancoding.com/sketch -->
    <title>Untitled</title>
    <desc>Created with Sketch.</desc>
    <defs></defs>
    <g id="Page-1" stroke="none" stroke-width="1" fill="none" fill-rule="evenodd">
        <g id="Medium_icon" transform="translate(-0.000000, 1.000000)" fill-rule="nonzero" fill="#231F20">
            <g id="g10" transform="translate(8.000000, 6.333334) scale(-1, 1) rotate(-180.000000) translate(-8.000000, -6.333334) translate(0.000000, 0.000001)">
                <g id="g12">
                    <path d="M15.9999996,10.7999997 L15.3671996,10.7999997 C15.1322663,10.7999997 14.7999996,10.4610931 14.7999996,10.2441197 L14.7999996,2.37999994 C14.7999996,2.16275995 15.1322663,1.86666662 15.3671996,1.86666662 L15.9999996,1.86666662 L15.9999996,0 L10.2666664,0 L10.2666664,1.86666662 L11.4666664,1.86666662 L11.4666664,10.1333331 L11.4078664,10.1333331 L8.60562645,0 L6.43609317,0 L3.66999991,10.1333331 L3.59999991,10.1333331 L3.59999991,1.86666662 L4.79999988,1.86666662 L4.79999988,0 L0,0 L0,1.86666662 L0.614635985,1.86666662 C0.867759978,1.86666662 1.19999997,2.16275995 1.19999997,2.37999994 L1.19999997,10.2441197 C1.19999997,10.4610931 0.867759978,10.7999997 0.614635985,10.7999997 L0,10.7999997 L0,12.6666663 L6.00218652,12.6666663 L7.97281313,5.3333332 L8.02702647,5.3333332 L10.0158797,12.6666663 L15.9999996,12.6666663 L15.9999996,10.7999997" id="path14"></path>
                </g>
            </g>
        </g>
    </g>
</svg>