<?xml version="1.0" encoding="UTF-8"?>
<svg width="16px" height="16px" viewBox="0 0 16 16" version="1.1" xmlns="http://www.w3.org/2000/svg" xmlns:xlink="http://www.w3.org/1999/xlink">
    <!-- Generator: Sketch 47 (45396) - http://www.bohemiancoding.com/sketch -->
    <title>Untitled 2</title>
    <desc>Created with Sketch.</desc>
    <defs></defs>
    <g id="Page-1" stroke="none" stroke-width="1" fill="none" fill-rule="evenodd">
        <g id="Twitter" transform="translate(0.000000, 1.000000)" fill-rule="nonzero" fill="#1DA1F2">
            <path d="M5.01511706,13.0129766 C11.0330435,13.0129766 14.3240134,8.02739799 14.3240134,3.70408027 C14.3240134,3.56247224 14.3211291,3.42150635 14.3147773,3.28117726 C14.9536,2.81936054 15.5088375,2.24305017 15.9467773,1.58699666 C15.3605565,1.84756656 14.729707,2.02297793 14.0679278,2.10207358 C14.743406,1.69702742 15.261988,1.05629431 15.5066435,0.292468227 C14.8745097,0.667216054 14.1744696,0.939585284 13.429105,1.08663545 C12.8320749,0.450702341 11.982095,0.0529498328 11.0409311,0.0529498328 C9.23416187,0.0529498328 7.76901137,1.51815385 7.76901137,3.32422742 C7.76901137,3.58096589 7.79771505,3.83069431 7.85384883,4.07023411 C5.13465151,3.93341003 2.72346756,2.63151839 1.10976856,0.651906355 C0.828789298,1.13540602 0.666771906,1.69704348 0.666771906,2.29632107 C0.666771906,3.43141137 1.24437726,4.43347157 2.12271839,5.01969231 C1.58594247,5.00310796 1.08170167,4.8557592 0.640979264,4.610499 C0.640497659,4.62422582 0.640497659,4.63760856 0.640497659,4.65227933 C0.640497659,6.23676094 1.76825686,7.55967732 3.26530033,7.8594499 C2.9903786,7.93439839 2.70112642,7.97458569 2.40258462,7.97458569 C2.19209097,7.97458569 1.98701271,7.95386809 1.78768161,7.91558368 C2.20420602,9.21554355 3.41202943,10.1615235 4.84400268,10.1879583 C3.72421672,11.0656573 2.31359465,11.5884131 0.780484281,11.5884131 C0.516725084,11.5884131 0.256160535,11.5734106 6.95652174e-05,11.543124 C1.44804281,12.471231 3.16737391,13.0127695 5.01529365,13.0127695" id="Shape"></path>
        </g>
    </g>
</svg>